<mxfile host="app.diagrams.net" modified="2023-10-19T23:33:26.935Z" agent="Mozilla/5.0 (Windows NT 10.0; Win64; x64) AppleWebKit/537.36 (KHTML, like Gecko) Chrome/118.0.0.0 Safari/537.36" etag="kVyIP-SeHDRY2CrKcAZQ" version="22.0.4" type="github">
  <diagram name="PÃ¡gina-1" id="PLl3LoUpIQeQATuizNE1">
    <mxGraphModel dx="2514" dy="882" grid="1" gridSize="10" guides="1" tooltips="1" connect="1" arrows="1" fold="1" page="1" pageScale="1" pageWidth="827" pageHeight="1169" math="0" shadow="0">
      <root>
        <mxCell id="0" />
        <mxCell id="1" parent="0" />
        <mxCell id="HerD0ccNxVNJL3fFop1b-1" value="Empleado" style="whiteSpace=wrap;html=1;align=center;" parent="1" vertex="1">
          <mxGeometry x="170" y="240" width="100" height="40" as="geometry" />
        </mxCell>
        <mxCell id="HerD0ccNxVNJL3fFop1b-2" value="Responsabiliza" style="shape=rhombus;perimeter=rhombusPerimeter;whiteSpace=wrap;html=1;align=center;" parent="1" vertex="1">
          <mxGeometry x="30" y="310" width="120" height="60" as="geometry" />
        </mxCell>
        <mxCell id="HerD0ccNxVNJL3fFop1b-3" value="Departamento" style="whiteSpace=wrap;html=1;align=center;" parent="1" vertex="1">
          <mxGeometry x="540" y="240" width="100" height="40" as="geometry" />
        </mxCell>
        <mxCell id="HerD0ccNxVNJL3fFop1b-4" value="Trabaja" style="shape=rhombus;perimeter=rhombusPerimeter;whiteSpace=wrap;html=1;align=center;" parent="1" vertex="1">
          <mxGeometry x="340" y="150" width="120" height="60" as="geometry" />
        </mxCell>
        <mxCell id="HerD0ccNxVNJL3fFop1b-5" value="Contrato" style="whiteSpace=wrap;html=1;align=center;" parent="1" vertex="1">
          <mxGeometry x="170" y="560" width="100" height="40" as="geometry" />
        </mxCell>
        <mxCell id="HerD0ccNxVNJL3fFop1b-6" value="Nomina" style="whiteSpace=wrap;html=1;align=center;" parent="1" vertex="1">
          <mxGeometry x="530" y="560" width="100" height="40" as="geometry" />
        </mxCell>
        <mxCell id="HerD0ccNxVNJL3fFop1b-7" value="ID nomina" style="ellipse;whiteSpace=wrap;html=1;align=center;fontStyle=4;" parent="1" vertex="1">
          <mxGeometry x="530" y="630" width="100" height="40" as="geometry" />
        </mxCell>
        <mxCell id="HerD0ccNxVNJL3fFop1b-8" value="Fecha" style="ellipse;whiteSpace=wrap;html=1;align=center;" parent="1" vertex="1">
          <mxGeometry x="640" y="620" width="100" height="40" as="geometry" />
        </mxCell>
        <mxCell id="HerD0ccNxVNJL3fFop1b-9" value="Salario" style="ellipse;whiteSpace=wrap;html=1;align=center;" parent="1" vertex="1">
          <mxGeometry x="660" y="560" width="100" height="40" as="geometry" />
        </mxCell>
        <mxCell id="HerD0ccNxVNJL3fFop1b-10" value="Num SS" style="ellipse;whiteSpace=wrap;html=1;align=center;" parent="1" vertex="1">
          <mxGeometry y="110" width="100" height="40" as="geometry" />
        </mxCell>
        <mxCell id="HerD0ccNxVNJL3fFop1b-11" value="Codigo trabajador" style="ellipse;whiteSpace=wrap;html=1;align=center;" parent="1" vertex="1">
          <mxGeometry x="-30" y="160" width="100" height="40" as="geometry" />
        </mxCell>
        <mxCell id="HerD0ccNxVNJL3fFop1b-12" value="Telefono" style="ellipse;whiteSpace=wrap;html=1;align=center;" parent="1" vertex="1">
          <mxGeometry y="210" width="100" height="40" as="geometry" />
        </mxCell>
        <mxCell id="HerD0ccNxVNJL3fFop1b-13" value="Direccion" style="ellipse;whiteSpace=wrap;html=1;align=center;" parent="1" vertex="1">
          <mxGeometry x="30" y="60" width="100" height="40" as="geometry" />
        </mxCell>
        <mxCell id="HerD0ccNxVNJL3fFop1b-14" value="Nombre" style="ellipse;whiteSpace=wrap;html=1;align=center;" parent="1" vertex="1">
          <mxGeometry x="80" y="20" width="100" height="40" as="geometry" />
        </mxCell>
        <mxCell id="HerD0ccNxVNJL3fFop1b-15" value="Apellidos" style="ellipse;whiteSpace=wrap;html=1;align=center;" parent="1" vertex="1">
          <mxGeometry x="170" y="50" width="100" height="40" as="geometry" />
        </mxCell>
        <mxCell id="HerD0ccNxVNJL3fFop1b-16" value="DNI" style="ellipse;whiteSpace=wrap;html=1;align=center;fontStyle=4;" parent="1" vertex="1">
          <mxGeometry x="230" y="90" width="100" height="40" as="geometry" />
        </mxCell>
        <mxCell id="HerD0ccNxVNJL3fFop1b-17" value="" style="endArrow=none;html=1;rounded=0;exitX=1;exitY=0.5;exitDx=0;exitDy=0;entryX=0;entryY=0.25;entryDx=0;entryDy=0;" parent="1" source="HerD0ccNxVNJL3fFop1b-12" target="HerD0ccNxVNJL3fFop1b-1" edge="1">
          <mxGeometry relative="1" as="geometry">
            <mxPoint x="370" y="430" as="sourcePoint" />
            <mxPoint x="170" y="260" as="targetPoint" />
          </mxGeometry>
        </mxCell>
        <mxCell id="HerD0ccNxVNJL3fFop1b-18" value="" style="endArrow=none;html=1;rounded=0;exitX=1;exitY=0.5;exitDx=0;exitDy=0;entryX=0;entryY=0;entryDx=0;entryDy=0;" parent="1" source="HerD0ccNxVNJL3fFop1b-11" target="HerD0ccNxVNJL3fFop1b-1" edge="1">
          <mxGeometry relative="1" as="geometry">
            <mxPoint x="110" y="240" as="sourcePoint" />
            <mxPoint x="180" y="270" as="targetPoint" />
          </mxGeometry>
        </mxCell>
        <mxCell id="HerD0ccNxVNJL3fFop1b-19" value="" style="endArrow=none;html=1;rounded=0;exitX=1;exitY=1;exitDx=0;exitDy=0;entryX=0.25;entryY=0;entryDx=0;entryDy=0;" parent="1" source="HerD0ccNxVNJL3fFop1b-10" target="HerD0ccNxVNJL3fFop1b-1" edge="1">
          <mxGeometry relative="1" as="geometry">
            <mxPoint x="120" y="250" as="sourcePoint" />
            <mxPoint x="190" y="280" as="targetPoint" />
          </mxGeometry>
        </mxCell>
        <mxCell id="HerD0ccNxVNJL3fFop1b-20" value="" style="endArrow=none;html=1;rounded=0;exitX=1;exitY=1;exitDx=0;exitDy=0;entryX=0.5;entryY=0;entryDx=0;entryDy=0;" parent="1" source="HerD0ccNxVNJL3fFop1b-13" target="HerD0ccNxVNJL3fFop1b-1" edge="1">
          <mxGeometry relative="1" as="geometry">
            <mxPoint x="130" y="260" as="sourcePoint" />
            <mxPoint x="200" y="290" as="targetPoint" />
          </mxGeometry>
        </mxCell>
        <mxCell id="HerD0ccNxVNJL3fFop1b-21" value="" style="endArrow=none;html=1;rounded=0;exitX=0.5;exitY=1;exitDx=0;exitDy=0;entryX=0.75;entryY=0;entryDx=0;entryDy=0;" parent="1" source="HerD0ccNxVNJL3fFop1b-14" target="HerD0ccNxVNJL3fFop1b-1" edge="1">
          <mxGeometry relative="1" as="geometry">
            <mxPoint x="140" y="270" as="sourcePoint" />
            <mxPoint x="210" y="300" as="targetPoint" />
          </mxGeometry>
        </mxCell>
        <mxCell id="HerD0ccNxVNJL3fFop1b-22" value="" style="endArrow=none;html=1;rounded=0;exitX=0;exitY=1;exitDx=0;exitDy=0;entryX=0.89;entryY=0;entryDx=0;entryDy=0;entryPerimeter=0;" parent="1" source="HerD0ccNxVNJL3fFop1b-15" target="HerD0ccNxVNJL3fFop1b-1" edge="1">
          <mxGeometry relative="1" as="geometry">
            <mxPoint x="250" y="120" as="sourcePoint" />
            <mxPoint x="230" y="250" as="targetPoint" />
          </mxGeometry>
        </mxCell>
        <mxCell id="HerD0ccNxVNJL3fFop1b-23" value="" style="endArrow=none;html=1;rounded=0;exitX=0;exitY=1;exitDx=0;exitDy=0;" parent="1" source="HerD0ccNxVNJL3fFop1b-16" edge="1">
          <mxGeometry relative="1" as="geometry">
            <mxPoint x="260" y="130" as="sourcePoint" />
            <mxPoint x="270" y="240" as="targetPoint" />
          </mxGeometry>
        </mxCell>
        <mxCell id="HerD0ccNxVNJL3fFop1b-24" value="" style="endArrow=none;html=1;rounded=0;entryX=0;entryY=0.5;entryDx=0;entryDy=0;exitX=0.5;exitY=0;exitDx=0;exitDy=0;" parent="1" source="HerD0ccNxVNJL3fFop1b-2" target="HerD0ccNxVNJL3fFop1b-1" edge="1">
          <mxGeometry relative="1" as="geometry">
            <mxPoint x="370" y="430" as="sourcePoint" />
            <mxPoint x="530" y="430" as="targetPoint" />
            <Array as="points">
              <mxPoint x="90" y="260" />
            </Array>
          </mxGeometry>
        </mxCell>
        <mxCell id="HerD0ccNxVNJL3fFop1b-25" value="Genera" style="shape=rhombus;perimeter=rhombusPerimeter;whiteSpace=wrap;html=1;align=center;" parent="1" vertex="1">
          <mxGeometry x="340" y="550" width="120" height="60" as="geometry" />
        </mxCell>
        <mxCell id="HerD0ccNxVNJL3fFop1b-26" value="" style="endArrow=none;html=1;rounded=0;exitX=1;exitY=0.5;exitDx=0;exitDy=0;entryX=0;entryY=0.5;entryDx=0;entryDy=0;" parent="1" source="HerD0ccNxVNJL3fFop1b-5" target="HerD0ccNxVNJL3fFop1b-25" edge="1">
          <mxGeometry relative="1" as="geometry">
            <mxPoint x="370" y="550" as="sourcePoint" />
            <mxPoint x="530" y="550" as="targetPoint" />
          </mxGeometry>
        </mxCell>
        <mxCell id="HerD0ccNxVNJL3fFop1b-27" value="" style="endArrow=none;html=1;rounded=0;entryX=0;entryY=0.5;entryDx=0;entryDy=0;" parent="1" target="HerD0ccNxVNJL3fFop1b-4" edge="1">
          <mxGeometry relative="1" as="geometry">
            <mxPoint x="300" y="260" as="sourcePoint" />
            <mxPoint x="340" y="260.5" as="targetPoint" />
            <Array as="points">
              <mxPoint x="300" y="180" />
            </Array>
          </mxGeometry>
        </mxCell>
        <mxCell id="HerD0ccNxVNJL3fFop1b-28" value="" style="endArrow=none;html=1;rounded=0;exitX=1;exitY=0.5;exitDx=0;exitDy=0;" parent="1" source="HerD0ccNxVNJL3fFop1b-1" edge="1">
          <mxGeometry relative="1" as="geometry">
            <mxPoint x="460" y="260" as="sourcePoint" />
            <mxPoint x="300" y="260" as="targetPoint" />
          </mxGeometry>
        </mxCell>
        <mxCell id="HerD0ccNxVNJL3fFop1b-29" value="" style="endArrow=none;html=1;rounded=0;exitX=1;exitY=0.5;exitDx=0;exitDy=0;entryX=0.25;entryY=1;entryDx=0;entryDy=0;" parent="1" source="HerD0ccNxVNJL3fFop1b-2" target="HerD0ccNxVNJL3fFop1b-1" edge="1">
          <mxGeometry relative="1" as="geometry">
            <mxPoint x="370" y="430" as="sourcePoint" />
            <mxPoint x="530" y="430" as="targetPoint" />
            <Array as="points">
              <mxPoint x="195" y="340" />
            </Array>
          </mxGeometry>
        </mxCell>
        <mxCell id="HerD0ccNxVNJL3fFop1b-30" value="Firma" style="shape=rhombus;perimeter=rhombusPerimeter;whiteSpace=wrap;html=1;align=center;" parent="1" vertex="1">
          <mxGeometry x="160" y="390" width="120" height="60" as="geometry" />
        </mxCell>
        <mxCell id="HerD0ccNxVNJL3fFop1b-31" value="" style="endArrow=none;html=1;rounded=0;exitX=0.5;exitY=0;exitDx=0;exitDy=0;entryX=0.5;entryY=1;entryDx=0;entryDy=0;" parent="1" source="HerD0ccNxVNJL3fFop1b-5" target="HerD0ccNxVNJL3fFop1b-30" edge="1">
          <mxGeometry relative="1" as="geometry">
            <mxPoint x="370" y="430" as="sourcePoint" />
            <mxPoint x="530" y="430" as="targetPoint" />
          </mxGeometry>
        </mxCell>
        <mxCell id="HerD0ccNxVNJL3fFop1b-32" value="" style="endArrow=none;html=1;rounded=0;exitX=0.5;exitY=0;exitDx=0;exitDy=0;entryX=0.5;entryY=1;entryDx=0;entryDy=0;" parent="1" edge="1">
          <mxGeometry relative="1" as="geometry">
            <mxPoint x="219.5" y="390" as="sourcePoint" />
            <mxPoint x="219.5" y="280" as="targetPoint" />
          </mxGeometry>
        </mxCell>
        <mxCell id="HerD0ccNxVNJL3fFop1b-33" value="" style="endArrow=none;html=1;rounded=0;exitX=1;exitY=0.5;exitDx=0;exitDy=0;entryX=0;entryY=0.5;entryDx=0;entryDy=0;" parent="1" edge="1">
          <mxGeometry relative="1" as="geometry">
            <mxPoint x="460" y="579.5" as="sourcePoint" />
            <mxPoint x="530" y="579.5" as="targetPoint" />
          </mxGeometry>
        </mxCell>
        <mxCell id="HerD0ccNxVNJL3fFop1b-34" value="" style="endArrow=none;html=1;rounded=0;" parent="1" edge="1">
          <mxGeometry relative="1" as="geometry">
            <mxPoint x="300" y="260" as="sourcePoint" />
            <mxPoint x="340" y="340" as="targetPoint" />
            <Array as="points">
              <mxPoint x="300" y="340" />
            </Array>
          </mxGeometry>
        </mxCell>
        <mxCell id="HerD0ccNxVNJL3fFop1b-35" value="Coordina" style="shape=rhombus;perimeter=rhombusPerimeter;whiteSpace=wrap;html=1;align=center;" parent="1" vertex="1">
          <mxGeometry x="334" y="310" width="120" height="60" as="geometry" />
        </mxCell>
        <mxCell id="HerD0ccNxVNJL3fFop1b-36" value="" style="endArrow=none;html=1;rounded=0;exitX=1;exitY=0.5;exitDx=0;exitDy=0;" parent="1" source="HerD0ccNxVNJL3fFop1b-4" edge="1">
          <mxGeometry relative="1" as="geometry">
            <mxPoint x="370" y="430" as="sourcePoint" />
            <mxPoint x="500" y="340" as="targetPoint" />
            <Array as="points">
              <mxPoint x="500" y="180" />
            </Array>
          </mxGeometry>
        </mxCell>
        <mxCell id="HerD0ccNxVNJL3fFop1b-37" value="" style="endArrow=none;html=1;rounded=0;exitX=1;exitY=0.5;exitDx=0;exitDy=0;" parent="1" source="HerD0ccNxVNJL3fFop1b-35" edge="1">
          <mxGeometry relative="1" as="geometry">
            <mxPoint x="370" y="430" as="sourcePoint" />
            <mxPoint x="500" y="340" as="targetPoint" />
          </mxGeometry>
        </mxCell>
        <mxCell id="HerD0ccNxVNJL3fFop1b-38" value="" style="endArrow=none;html=1;rounded=0;" parent="1" target="HerD0ccNxVNJL3fFop1b-3" edge="1">
          <mxGeometry relative="1" as="geometry">
            <mxPoint x="500" y="260" as="sourcePoint" />
            <mxPoint x="530" y="430" as="targetPoint" />
          </mxGeometry>
        </mxCell>
        <mxCell id="HerD0ccNxVNJL3fFop1b-39" value="ID contrato" style="ellipse;whiteSpace=wrap;html=1;align=center;fontStyle=4;" parent="1" vertex="1">
          <mxGeometry x="70" y="620" width="100" height="40" as="geometry" />
        </mxCell>
        <mxCell id="HerD0ccNxVNJL3fFop1b-40" value="Categoria" style="ellipse;whiteSpace=wrap;html=1;align=center;" parent="1" vertex="1">
          <mxGeometry x="230" y="620" width="100" height="40" as="geometry" />
        </mxCell>
        <mxCell id="HerD0ccNxVNJL3fFop1b-41" value="Fecha inicio" style="ellipse;whiteSpace=wrap;html=1;align=center;" parent="1" vertex="1">
          <mxGeometry x="100" y="680" width="100" height="40" as="geometry" />
        </mxCell>
        <mxCell id="HerD0ccNxVNJL3fFop1b-42" value="Fecha final" style="ellipse;whiteSpace=wrap;html=1;align=center;" parent="1" vertex="1">
          <mxGeometry x="210" y="680" width="100" height="40" as="geometry" />
        </mxCell>
        <mxCell id="HerD0ccNxVNJL3fFop1b-43" value="1, N" style="text;strokeColor=none;fillColor=none;spacingLeft=4;spacingRight=4;overflow=hidden;rotatable=0;points=[[0,0.5],[1,0.5]];portConstraint=eastwest;fontSize=12;whiteSpace=wrap;html=1;" parent="1" vertex="1">
          <mxGeometry x="460" y="220" width="40" height="30" as="geometry" />
        </mxCell>
        <mxCell id="HerD0ccNxVNJL3fFop1b-44" value="1, N" style="text;strokeColor=none;fillColor=none;spacingLeft=4;spacingRight=4;overflow=hidden;rotatable=0;points=[[0,0.5],[1,0.5]];portConstraint=eastwest;fontSize=12;whiteSpace=wrap;html=1;" parent="1" vertex="1">
          <mxGeometry x="300" y="220" width="40" height="30" as="geometry" />
        </mxCell>
        <mxCell id="HerD0ccNxVNJL3fFop1b-45" value="0,1" style="text;strokeColor=none;fillColor=none;spacingLeft=4;spacingRight=4;overflow=hidden;rotatable=0;points=[[0,0.5],[1,0.5]];portConstraint=eastwest;fontSize=12;whiteSpace=wrap;html=1;" parent="1" vertex="1">
          <mxGeometry x="460" y="310" width="40" height="30" as="geometry" />
        </mxCell>
        <mxCell id="HerD0ccNxVNJL3fFop1b-46" value="1, 1" style="text;strokeColor=none;fillColor=none;spacingLeft=4;spacingRight=4;overflow=hidden;rotatable=0;points=[[0,0.5],[1,0.5]];portConstraint=eastwest;fontSize=12;whiteSpace=wrap;html=1;" parent="1" vertex="1">
          <mxGeometry x="300" y="310" width="40" height="30" as="geometry" />
        </mxCell>
        <mxCell id="HerD0ccNxVNJL3fFop1b-47" value="0, N" style="text;strokeColor=none;fillColor=none;spacingLeft=4;spacingRight=4;overflow=hidden;rotatable=0;points=[[0,0.5],[1,0.5]];portConstraint=eastwest;fontSize=12;whiteSpace=wrap;html=1;" parent="1" vertex="1">
          <mxGeometry x="160" y="280" width="40" height="30" as="geometry" />
        </mxCell>
        <mxCell id="HerD0ccNxVNJL3fFop1b-48" value="0, 1" style="text;strokeColor=none;fillColor=none;spacingLeft=4;spacingRight=4;overflow=hidden;rotatable=0;points=[[0,0.5],[1,0.5]];portConstraint=eastwest;fontSize=12;whiteSpace=wrap;html=1;" parent="1" vertex="1">
          <mxGeometry x="100" y="260" width="40" height="30" as="geometry" />
        </mxCell>
        <mxCell id="HerD0ccNxVNJL3fFop1b-49" value="ID departamento" style="ellipse;whiteSpace=wrap;html=1;align=center;fontStyle=4;" parent="1" vertex="1">
          <mxGeometry x="650" y="210" width="100" height="40" as="geometry" />
        </mxCell>
        <mxCell id="HerD0ccNxVNJL3fFop1b-50" value="" style="endArrow=none;html=1;rounded=0;exitX=0.5;exitY=0;exitDx=0;exitDy=0;entryX=0;entryY=1;entryDx=0;entryDy=0;" parent="1" source="HerD0ccNxVNJL3fFop1b-39" target="HerD0ccNxVNJL3fFop1b-5" edge="1">
          <mxGeometry relative="1" as="geometry">
            <mxPoint x="380" y="390" as="sourcePoint" />
            <mxPoint x="540" y="390" as="targetPoint" />
          </mxGeometry>
        </mxCell>
        <mxCell id="HerD0ccNxVNJL3fFop1b-51" value="" style="endArrow=none;html=1;rounded=0;exitX=1;exitY=0;exitDx=0;exitDy=0;entryX=0.25;entryY=1;entryDx=0;entryDy=0;" parent="1" source="HerD0ccNxVNJL3fFop1b-41" target="HerD0ccNxVNJL3fFop1b-5" edge="1">
          <mxGeometry relative="1" as="geometry">
            <mxPoint x="380" y="390" as="sourcePoint" />
            <mxPoint x="540" y="390" as="targetPoint" />
          </mxGeometry>
        </mxCell>
        <mxCell id="HerD0ccNxVNJL3fFop1b-52" value="Nombre" style="ellipse;whiteSpace=wrap;html=1;align=center;" parent="1" vertex="1">
          <mxGeometry x="650" y="280" width="100" height="40" as="geometry" />
        </mxCell>
        <mxCell id="HerD0ccNxVNJL3fFop1b-53" value="" style="endArrow=none;html=1;rounded=0;exitX=0;exitY=0;exitDx=0;exitDy=0;entryX=0.5;entryY=1;entryDx=0;entryDy=0;" parent="1" source="HerD0ccNxVNJL3fFop1b-42" target="HerD0ccNxVNJL3fFop1b-5" edge="1">
          <mxGeometry relative="1" as="geometry">
            <mxPoint x="380" y="390" as="sourcePoint" />
            <mxPoint x="540" y="390" as="targetPoint" />
          </mxGeometry>
        </mxCell>
        <mxCell id="HerD0ccNxVNJL3fFop1b-54" value="" style="endArrow=none;html=1;rounded=0;exitX=0;exitY=0;exitDx=0;exitDy=0;entryX=0.75;entryY=1;entryDx=0;entryDy=0;" parent="1" source="HerD0ccNxVNJL3fFop1b-40" target="HerD0ccNxVNJL3fFop1b-5" edge="1">
          <mxGeometry relative="1" as="geometry">
            <mxPoint x="380" y="390" as="sourcePoint" />
            <mxPoint x="540" y="390" as="targetPoint" />
          </mxGeometry>
        </mxCell>
        <mxCell id="HerD0ccNxVNJL3fFop1b-55" value="" style="endArrow=none;html=1;rounded=0;exitX=0.5;exitY=0;exitDx=0;exitDy=0;entryX=0.5;entryY=1;entryDx=0;entryDy=0;" parent="1" source="HerD0ccNxVNJL3fFop1b-7" target="HerD0ccNxVNJL3fFop1b-6" edge="1">
          <mxGeometry relative="1" as="geometry">
            <mxPoint x="380" y="390" as="sourcePoint" />
            <mxPoint x="540" y="390" as="targetPoint" />
          </mxGeometry>
        </mxCell>
        <mxCell id="HerD0ccNxVNJL3fFop1b-56" value="" style="endArrow=none;html=1;rounded=0;exitX=0;exitY=0;exitDx=0;exitDy=0;entryX=0.75;entryY=1;entryDx=0;entryDy=0;" parent="1" source="HerD0ccNxVNJL3fFop1b-8" target="HerD0ccNxVNJL3fFop1b-6" edge="1">
          <mxGeometry relative="1" as="geometry">
            <mxPoint x="380" y="390" as="sourcePoint" />
            <mxPoint x="540" y="390" as="targetPoint" />
          </mxGeometry>
        </mxCell>
        <mxCell id="HerD0ccNxVNJL3fFop1b-57" value="" style="endArrow=none;html=1;rounded=0;exitX=1;exitY=0.5;exitDx=0;exitDy=0;entryX=0;entryY=0;entryDx=0;entryDy=0;" parent="1" source="HerD0ccNxVNJL3fFop1b-6" target="HerD0ccNxVNJL3fFop1b-9" edge="1">
          <mxGeometry relative="1" as="geometry">
            <mxPoint x="380" y="390" as="sourcePoint" />
            <mxPoint x="540" y="390" as="targetPoint" />
          </mxGeometry>
        </mxCell>
        <mxCell id="HerD0ccNxVNJL3fFop1b-58" value="Jefe" style="text;strokeColor=none;fillColor=none;spacingLeft=4;spacingRight=4;overflow=hidden;rotatable=0;points=[[0,0.5],[1,0.5]];portConstraint=eastwest;fontSize=12;whiteSpace=wrap;html=1;" parent="1" vertex="1">
          <mxGeometry x="150" y="340" width="40" height="30" as="geometry" />
        </mxCell>
        <mxCell id="HerD0ccNxVNJL3fFop1b-59" value="1, N" style="text;strokeColor=none;fillColor=none;spacingLeft=4;spacingRight=4;overflow=hidden;rotatable=0;points=[[0,0.5],[1,0.5]];portConstraint=eastwest;fontSize=12;whiteSpace=wrap;html=1;" parent="1" vertex="1">
          <mxGeometry x="220" y="530" width="40" height="30" as="geometry" />
        </mxCell>
        <mxCell id="HerD0ccNxVNJL3fFop1b-60" value="1, 1" style="text;strokeColor=none;fillColor=none;spacingLeft=4;spacingRight=4;overflow=hidden;rotatable=0;points=[[0,0.5],[1,0.5]];portConstraint=eastwest;fontSize=12;whiteSpace=wrap;html=1;" parent="1" vertex="1">
          <mxGeometry x="220" y="280" width="40" height="30" as="geometry" />
        </mxCell>
        <mxCell id="HerD0ccNxVNJL3fFop1b-61" value="1, N" style="text;strokeColor=none;fillColor=none;spacingLeft=4;spacingRight=4;overflow=hidden;rotatable=0;points=[[0,0.5],[1,0.5]];portConstraint=eastwest;fontSize=12;whiteSpace=wrap;html=1;" parent="1" vertex="1">
          <mxGeometry x="490" y="550" width="40" height="30" as="geometry" />
        </mxCell>
        <mxCell id="HerD0ccNxVNJL3fFop1b-62" value="1, 1" style="text;strokeColor=none;fillColor=none;spacingLeft=4;spacingRight=4;overflow=hidden;rotatable=0;points=[[0,0.5],[1,0.5]];portConstraint=eastwest;fontSize=12;whiteSpace=wrap;html=1;" parent="1" vertex="1">
          <mxGeometry x="270" y="550" width="40" height="30" as="geometry" />
        </mxCell>
        <mxCell id="HerD0ccNxVNJL3fFop1b-63" value="" style="endArrow=none;html=1;rounded=0;entryX=0;entryY=0.5;entryDx=0;entryDy=0;exitX=0.75;exitY=0;exitDx=0;exitDy=0;" parent="1" source="HerD0ccNxVNJL3fFop1b-3" target="HerD0ccNxVNJL3fFop1b-49" edge="1">
          <mxGeometry relative="1" as="geometry">
            <mxPoint x="380" y="390" as="sourcePoint" />
            <mxPoint x="540" y="390" as="targetPoint" />
          </mxGeometry>
        </mxCell>
        <mxCell id="HerD0ccNxVNJL3fFop1b-64" value="" style="endArrow=none;html=1;rounded=0;exitX=0.75;exitY=1;exitDx=0;exitDy=0;entryX=0;entryY=0.5;entryDx=0;entryDy=0;" parent="1" source="HerD0ccNxVNJL3fFop1b-3" target="HerD0ccNxVNJL3fFop1b-52" edge="1">
          <mxGeometry relative="1" as="geometry">
            <mxPoint x="380" y="390" as="sourcePoint" />
            <mxPoint x="540" y="390" as="targetPoint" />
          </mxGeometry>
        </mxCell>
        <mxCell id="ZJW3PWLa7ayAjHTxs4St-1" value="&lt;h1 style=&quot;font-size: 13px;&quot;&gt;&lt;span style=&quot;background-color: initial;&quot;&gt;Empleado (&lt;u&gt;DNI:&lt;/u&gt;&lt;font color=&quot;#999999&quot;&gt;&amp;nbsp;varchar&lt;/font&gt;&lt;/span&gt;&lt;span style=&quot;background-color: initial;&quot;&gt;&lt;span style=&quot;font-weight: normal;&quot;&gt;&amp;nbsp;, Nombre: &lt;font color=&quot;#999999&quot;&gt;varchar&lt;/font&gt;&lt;/span&gt;&lt;font style=&quot;font-weight: normal;&quot; color=&quot;#999999&quot;&gt;,&amp;nbsp;&lt;/font&gt;&lt;span style=&quot;font-weight: normal;&quot;&gt;Apellidos:&lt;/span&gt;&lt;font style=&quot;font-weight: normal;&quot; color=&quot;#999999&quot;&gt;&amp;nbsp;varchar&amp;nbsp;&lt;/font&gt;&lt;span style=&quot;font-weight: normal;&quot;&gt;, Direccion: &lt;font color=&quot;#999999&quot;&gt;varchar&lt;/font&gt;&lt;/span&gt;&lt;span style=&quot;font-weight: normal;&quot;&gt;&amp;nbsp;, Num_SS: &lt;/span&gt;&lt;font style=&quot;font-weight: normal;&quot; color=&quot;#999999&quot;&gt;varchar&lt;/font&gt;&lt;span style=&quot;font-weight: normal;&quot;&gt;, Codigo_trabajador: &lt;/span&gt;&lt;font style=&quot;font-weight: normal;&quot; color=&quot;#999999&quot;&gt;varchar&lt;/font&gt;&lt;span style=&quot;font-weight: normal;&quot;&gt;, Telefono: &lt;/span&gt;&lt;font style=&quot;font-weight: normal;&quot; color=&quot;#999999&quot;&gt;varchar, &lt;/font&gt;&lt;i style=&quot;&quot;&gt;&lt;font style=&quot;&quot; color=&quot;#000000&quot;&gt;Jefe [Ref_Empleado_DNI]&lt;/font&gt;&lt;/i&gt;&lt;span style=&quot;font-weight: normal;&quot;&gt;)&lt;/span&gt;&lt;/span&gt;&lt;/h1&gt;&lt;div&gt;&lt;h1 style=&quot;border-color: var(--border-color); font-size: 13px;&quot;&gt;&lt;font style=&quot;border-color: var(--border-color);&quot;&gt;Departamento (&lt;u&gt;ID_departamento&lt;/u&gt;: &lt;font color=&quot;#999999&quot;&gt;int&lt;/font&gt;&lt;/font&gt;&lt;font style=&quot;border-color: var(--border-color);&quot;&gt;&lt;span style=&quot;font-weight: normal;&quot;&gt;,&amp;nbsp; Nombre : &lt;font color=&quot;#999999&quot;&gt;varchar&lt;/font&gt;&lt;/span&gt;&lt;font style=&quot;font-weight: normal;&quot; color=&quot;#999999&quot;&gt;,&amp;nbsp;&amp;nbsp;&lt;/font&gt;&amp;nbsp;&lt;/font&gt;&lt;i style=&quot;&quot;&gt;Coordinador[ Ref_Empleado_DNI ] &lt;/i&gt;)&lt;/h1&gt;&lt;/div&gt;&lt;h1 style=&quot;font-size: 13px;&quot;&gt;&lt;font style=&quot;font-size: 13px;&quot;&gt;Contrato (&lt;u&gt;ID_contrato&lt;/u&gt;&lt;/font&gt;&lt;font style=&quot;font-size: 13px;&quot;&gt;:&lt;span style=&quot;font-weight: normal;&quot;&gt; &lt;font color=&quot;#999999&quot;&gt;int&lt;/font&gt;&lt;/span&gt;&lt;/font&gt;&lt;font style=&quot;font-size: 13px;&quot;&gt; , &amp;nbsp;Fecha_inicio&lt;/font&gt;&lt;font style=&quot;font-size: 13px;&quot;&gt;&lt;span style=&quot;font-weight: normal;&quot;&gt;&amp;nbsp;: &lt;font color=&quot;#999999&quot;&gt;date&lt;/font&gt;&lt;/span&gt;&lt;font style=&quot;font-weight: normal;&quot; color=&quot;#999999&quot;&gt;&amp;nbsp;&lt;/font&gt;&lt;span style=&quot;font-weight: normal;&quot;&gt;, Fecha_final:&lt;/span&gt;&lt;font style=&quot;font-weight: normal;&quot; color=&quot;#999999&quot;&gt;&amp;nbsp;date, &lt;/font&gt;&lt;font color=&quot;#000000&quot; style=&quot;font-weight: normal;&quot;&gt;Categoria&lt;/font&gt;&lt;font style=&quot;font-weight: normal;&quot; color=&quot;#999999&quot;&gt;: varchar&amp;nbsp;&amp;nbsp;&lt;/font&gt;&amp;nbsp;&lt;i&gt;Empleado [Ref_Empleado_DNI]&lt;/i&gt;&lt;/font&gt;&lt;font style=&quot;font-weight: normal; font-size: 13px;&quot;&gt;)&lt;/font&gt;&lt;/h1&gt;&lt;h1 style=&quot;font-size: 13px;&quot;&gt;&lt;font style=&quot;font-size: 13px;&quot;&gt;Nomina( ID_nomina: &lt;font color=&quot;#999999&quot;&gt;int&lt;/font&gt;, Fecha: &lt;font color=&quot;#999999&quot;&gt;date&lt;/font&gt;, Salario: &lt;font color=&quot;#999999&quot;&gt;int&lt;/font&gt;, &lt;i&gt;Contrato [Ref_Contrato_ID_contrato]&lt;/i&gt;&lt;/font&gt;&lt;font style=&quot;background-color: initial; font-weight: normal; border-color: var(--border-color);&quot;&gt;&lt;i&gt;&amp;nbsp;&lt;/i&gt;&lt;/font&gt;&lt;span style=&quot;background-color: initial; font-weight: normal;&quot;&gt;)&amp;nbsp;&lt;/span&gt;&lt;/h1&gt;&lt;div&gt;&lt;font style=&quot;font-size: 13px;&quot;&gt;&lt;b style=&quot;&quot;&gt;Trabaja (&lt;i style=&quot;&quot;&gt;&lt;u&gt;Empleado &lt;/u&gt;[Ref_Empleado_DNI], &lt;u&gt;Departamento &lt;/u&gt;[Ref_ID_departamento]&lt;/i&gt;)&lt;/b&gt;&lt;/font&gt;&lt;/div&gt;" style="text;html=1;strokeColor=none;fillColor=#dbdbdb;spacing=5;spacingTop=0;whiteSpace=wrap;overflow=hidden;rounded=0;fontColor=#333333;" parent="1" vertex="1">
          <mxGeometry x="-30" y="760" width="1060" height="140" as="geometry" />
        </mxCell>
      </root>
    </mxGraphModel>
  </diagram>
</mxfile>
